<svg width="10" height="10" viewBox="0 0 10 10" fill="none" xmlns="http://www.w3.org/2000/svg">
<g id="copy icon white">
<path id="Path" d="M6.28106 3H0.718917C0.322523 3 0 3.3225 0 3.71892V9.28108C2.18749e-05 9.6775 0.322501 10 0.718917 10H6.28108C6.6775 10 7 9.6775 7 9.2811V3.71892C7.00002 3.3225 6.67748 3 6.28106 3Z" fill="white"/>
<path id="Path_2" opacity="0.495652" d="M9.2811 0H3.7189C3.32248 0 3 0.322501 3 0.718895V2.40619C3.1528 2.40619 6.15153 2.40619 6.27125 2.40619C7.02953 2.40619 7.64642 3.02308 7.64642 3.78135C7.64642 3.9233 7.64642 6.96395 7.64642 7H9.2811C9.6775 7 10 6.6775 10 6.28108V0.718895C9.99998 0.322501 9.6775 0 9.2811 0Z" fill="white"/>
</g>
</svg>
