<svg width="38" height="38" viewBox="0 0 38 38" fill="none" xmlns="http://www.w3.org/2000/svg">
<rect opacity="0.1" width="38" height="38" rx="19" fill="#3E88FF"/>
<path fill-rule="evenodd" clip-rule="evenodd" d="M24.0183 19.7755L24.0164 19.7744C24.0144 19.773 24.0123 19.7718 24.0103 19.7707L24.0102 19.7707L24.0081 19.7695C23.362 19.3379 22.6683 19.0004 21.946 18.7502C23.1156 17.8589 23.875 16.4556 23.875 14.875C23.875 12.187 21.688 10 19 10C16.312 10 14.125 12.187 14.125 14.875C14.125 16.4556 14.8848 17.8589 16.0544 18.7502C15.3321 19.0004 14.6384 19.3379 13.9922 19.7695L13.9881 19.7721L13.984 19.7747L13.9806 19.777C11.488 21.4536 10 24.2474 10 27.25C10 27.664 10.336 28 10.75 28C11.164 28 11.5 27.664 11.5 27.25C11.5 24.9524 12.5477 22.8036 14.3253 21.3857L18.4698 25.5302C18.6104 25.6709 18.8013 25.75 19 25.75C19.1987 25.75 19.3896 25.6709 19.5302 25.5302L23.6748 21.3857C25.4526 22.8047 26.5 24.9528 26.5 27.25C26.5 27.664 26.836 28 27.25 28C27.664 28 28 27.664 28 27.25C28 24.2474 26.512 21.4536 24.0183 19.7755ZM15.625 14.875C15.625 13.0143 17.1389 11.5 19 11.5C20.8611 11.5 22.375 13.0143 22.375 14.875C22.375 16.7358 20.8611 18.25 19 18.25C17.1389 18.25 15.625 16.7358 15.625 14.875ZM15.6186 20.5577L19 23.9391L22.3814 20.5581C21.3359 20.0301 20.1839 19.75 19 19.75C17.8165 19.75 16.6649 20.0301 15.6186 20.5577ZM14.5 25.375C14.086 25.375 13.75 25.711 13.75 26.125V27.25C13.75 27.664 14.086 28 14.5 28C14.914 28 15.25 27.664 15.25 27.25V26.125C15.25 25.711 14.914 25.375 14.5 25.375ZM23.125 26.125C23.125 25.711 23.461 25.375 23.875 25.375C24.289 25.375 24.625 25.711 24.625 26.125V27.25C24.625 27.664 24.289 28 23.875 28C23.461 28 23.125 27.664 23.125 27.25V26.125Z" fill="#3E88FF"/>
</svg>
