<svg width="38" height="38" viewBox="0 0 38 38" fill="none" xmlns="http://www.w3.org/2000/svg">
<rect opacity="0.1" width="38" height="38" rx="19" fill="#66CA77"/>
<path fill-rule="evenodd" clip-rule="evenodd" d="M26.5749 19.9884C28.8504 19.2034 28.2468 15.8054 25.8494 15.8573C25.355 15.8666 25.0423 15.3131 25.3029 14.877C25.8557 13.9521 25.6636 12.8268 24.8358 12.1405C24.0222 11.466 22.9011 11.4849 22.1094 12.1866C21.7391 12.5147 21.1586 12.3007 21.0818 11.7991C20.9196 10.7398 20.0638 10 19.0007 10C17.9385 10 17.0821 10.7392 16.9198 11.7991C16.8432 12.2998 16.2631 12.5151 15.8922 12.1866C15.1005 11.4849 13.9792 11.4661 13.1654 12.1408C12.3378 12.827 12.1459 13.9521 12.6987 14.877C12.9588 15.3122 12.6471 15.8672 12.1523 15.8573C11.0931 15.8339 10.2236 16.5531 10.0362 17.6033C9.84759 18.6601 10.4194 19.6409 11.4267 19.9885C11.8973 20.1508 12.0073 20.7846 11.6165 21.103C10.7846 21.7807 10.5828 22.9031 11.1259 23.8326C11.661 24.7483 12.721 25.1185 13.7038 24.7327C14.1612 24.5532 14.6391 24.9593 14.5412 25.4605C14.3348 26.5174 14.8936 27.5084 15.9001 27.8703C16.8959 28.2285 17.9461 27.8255 18.454 26.8904C18.6929 26.4506 19.3083 26.4498 19.5477 26.8904C20.0536 27.8218 21.1018 28.23 22.1013 27.8705C23.108 27.5085 23.6669 26.5175 23.4605 25.4605C23.3627 24.9597 23.8402 24.553 24.2979 24.7327C25.2807 25.1185 26.3407 24.7485 26.8756 23.833C27.4188 22.9034 27.2172 21.7807 26.3852 21.103C25.9946 20.7848 26.104 20.1509 26.5749 19.9884ZM26.0924 18.5899C24.5244 19.1309 24.1602 21.1986 25.4509 22.2499C25.8612 22.5842 25.6456 23.0055 25.5983 23.0866C25.535 23.1948 25.2932 23.5339 24.8385 23.3556C23.2834 22.7452 21.6893 24.1095 22.0086 25.7441C22.1081 26.2536 21.7215 26.4349 21.6007 26.4784C21.4842 26.5202 21.0859 26.6228 20.8477 26.1843C20.0531 24.7212 17.9575 24.7048 17.154 26.1843C16.9159 26.6227 16.5173 26.5201 16.4007 26.4782C16.28 26.4347 15.8936 26.2535 15.9931 25.7441C16.3121 24.1112 14.7199 22.7446 13.1632 23.3556C12.7084 23.5341 12.4665 23.1946 12.4033 23.0863C12.3559 23.0053 12.1406 22.5842 12.5508 22.25C13.842 21.1982 13.4762 19.1307 11.9092 18.59C11.4317 18.4253 11.4696 17.9921 11.4926 17.8633C11.5493 17.5455 11.7689 17.3295 12.1213 17.3364C13.7989 17.3716 14.8135 15.5318 13.9685 14.1181C13.6941 13.659 14.0379 13.3392 14.1096 13.2797C14.2048 13.2008 14.544 12.9686 14.9111 13.2938C16.1695 14.409 18.1305 13.6667 18.3822 12.0231C18.4594 11.5186 18.8751 11.4794 19.0007 11.4794C19.1263 11.4794 19.5423 11.5186 19.6195 12.023C19.8719 13.6715 21.8356 14.4059 23.0905 13.2938C23.4576 12.9685 23.7965 13.2005 23.8916 13.2794C23.9634 13.3389 24.3075 13.6589 24.0331 14.118C23.1866 15.5343 24.206 17.3719 25.8804 17.3363C26.3745 17.3267 26.4866 17.7368 26.5091 17.863C26.5321 17.9919 26.57 18.4251 26.0924 18.5899ZM18.2376 17.121C18.2376 17.736 17.7373 18.2364 17.1223 18.2364C16.5072 18.2364 16.0068 17.736 16.0068 17.121C16.0068 16.506 16.5072 16.0056 17.1223 16.0056C17.7373 16.0056 18.2376 16.506 18.2376 17.121ZM20.8794 19.7627C20.2644 19.7627 19.764 20.2631 19.764 20.8782C19.764 21.4932 20.2644 21.9936 20.8794 21.9936C21.4944 21.9936 21.9948 21.4932 21.9948 20.8782C21.9948 20.2631 21.4944 19.7627 20.8794 19.7627ZM20.7321 16.2222C21.0209 15.9334 21.4893 15.9334 21.7782 16.2222C22.067 16.5111 22.067 16.9795 21.7782 17.2683L17.2696 21.7769C17.1251 21.9213 16.9358 21.9935 16.7465 21.9935C16.0936 21.9935 15.756 21.1983 16.2235 20.7308L20.7321 16.2222Z" fill="#66CA77"/>
</svg>
