<svg width="38" height="38" viewBox="0 0 38 38" fill="none" xmlns="http://www.w3.org/2000/svg">
<rect opacity="0.1" width="38" height="38" rx="19" fill="#FF4C4C"/>
<path fill-rule="evenodd" clip-rule="evenodd" d="M24.009 14.0536C24.4748 14.3198 24.8792 14.7273 25.1809 15.0557C27.6217 17.5343 28.0347 21.3487 26.2084 24.5527C24.8261 27.0136 22.0424 28.6131 19.1967 28.6134C19.0737 28.6134 18.9509 28.6102 18.8276 28.6042C15.8777 28.4595 13.0466 26.5684 11.7835 23.8983C11.0837 22.44 10.8566 20.7577 11.1461 19.1646C11.5904 16.7845 13.1589 14.9054 14.2998 13.6985C15.0563 12.9273 15.7836 12.0981 16.4866 11.2964L16.4908 11.2916C17.0741 10.6264 17.6772 9.93873 18.2965 9.28353C18.4579 9.11271 18.6881 9.02282 18.9221 9.04033C19.1565 9.05708 19.3712 9.17828 19.5065 9.37055C21.1053 11.6384 21.3067 14.1217 20.0593 16.1839C19.8939 16.4481 19.7641 16.7229 19.6267 17.0139L19.6191 17.0299C19.5619 17.1509 19.505 17.2712 19.4462 17.3896C19.1768 18.0189 19.2121 18.706 19.5439 19.2778C20.0849 20.1913 21.0625 20.1059 21.3493 20.0576C21.935 19.9594 22.6806 19.5458 22.8527 18.7041C22.8548 18.6944 22.8571 18.6847 22.8594 18.6749L22.8603 18.6712C22.8768 18.6054 22.8914 18.4818 22.8679 18.2684L22.8677 18.2668C22.8667 18.258 22.8658 18.2493 22.8653 18.2404C22.5847 14.4832 22.9295 14.2519 23.1811 14.0831L23.1811 14.0831C23.4152 13.9263 23.7188 13.9068 23.9709 14.0329C23.9839 14.0395 23.9967 14.0463 24.009 14.0536ZM18.9046 27.039C21.294 27.156 23.6838 25.847 24.8447 23.7803C26.2452 21.3233 26.0349 18.4442 24.3536 16.4705C24.3625 16.9648 24.3847 17.532 24.4275 18.1103C24.4649 18.4588 24.4508 18.7613 24.3852 19.0341C24.107 20.3588 23.0192 21.3667 21.6087 21.6034C20.1998 21.8395 18.8916 21.2523 18.1917 20.0704C17.6086 19.0662 17.5446 17.8251 18.0174 16.7446C18.0229 16.7323 18.0284 16.7203 18.0344 16.7083C18.0942 16.5886 18.1517 16.4671 18.2094 16.3444C18.3602 16.0254 18.5161 15.6954 18.7241 15.3632C19.687 13.7711 19.2542 12.1721 18.7327 11.1238C18.3717 11.5242 18.0148 11.931 17.6653 12.3299L17.6543 12.3425C16.9404 13.1565 16.2023 13.9981 15.4286 14.7861C13.8418 16.4645 12.9675 17.9494 12.6877 19.4489C12.4572 20.7154 12.6385 22.0574 13.1987 23.2241C14.2235 25.3903 16.5158 26.9217 18.9046 27.039Z" fill="#FF4C4C"/>
</svg>
