<svg width="184" height="44" viewBox="0 0 184 44" fill="none" xmlns="http://www.w3.org/2000/svg">
<path fill-rule="evenodd" clip-rule="evenodd" d="M0.83402 7.33323C2.25485 9.02906 5.82985 11.4124 5.82985 11.4124L9.72569 6.64573L2.48402 4.72073L0.238187 0.183228C0.238187 0.183228 -0.586813 5.63739 0.83402 7.33323ZM36.85 7.33323C35.4292 9.02906 31.8541 11.4124 31.8541 11.4124L27.9583 6.64573L35.2 4.72073L37.4458 0.183228C37.4458 0.183228 38.2708 5.63739 36.85 7.33323Z" fill="#1A1919"/>
<path fill-rule="evenodd" clip-rule="evenodd" d="M15.0943 30.4932L15.6558 33.3446C15.6646 33.3892 16.5036 37.5195 18.8398 41.0633C21.1831 37.512 22.0197 33.3888 22.0285 33.3439L22.5915 30.498L24.8318 36.4719C25.9434 34.2358 26.0459 32.4485 26.047 32.4269L26.1652 30.0373L28.9658 34.0021C30.7638 30.0389 30.4519 25.304 30.4483 25.2519L30.2961 23.1218L31.8544 24.6095C31.7556 19.3743 29.4403 13.9703 29.4143 13.91L28.9512 12.8419L30.7495 12.7136C29.3462 9.26122 26.1947 6.60619 26.1601 6.57722L25.7089 6.20121L25.9163 5.65121C26.029 5.35256 26.1368 5.03777 26.2248 4.75452C25.6581 4.91384 24.9437 5.12651 24.3053 5.32524L24.0622 5.40077L23.8189 5.32652C22.3757 4.88542 20.3235 4.78001 19.2284 4.75636L18.945 4.75031L18.8482 4.75067L18.6828 4.75012L18.4557 4.75636C17.3608 4.78001 15.3084 4.88542 13.8652 5.32652L13.6219 5.40077L13.379 5.32524C12.7405 5.12651 12.026 4.91384 11.459 4.75452C11.5473 5.03777 11.6549 5.35256 11.7679 5.65121L11.9761 6.20157L11.5235 6.57759C11.4892 6.60619 8.33789 9.26122 6.93466 12.7136L8.73224 12.8419L8.27006 13.9098C8.24384 13.9701 5.92999 19.3807 5.82971 24.6093L7.38804 23.1218L7.23587 25.2519C7.23221 25.3034 6.92641 30.0463 8.71849 34.0019L11.5323 30.0157L11.6372 32.4294C11.6381 32.4489 11.7406 34.2358 12.8523 36.4721L15.0943 30.4932Z" fill="#5FB0C9"/>
<path fill-rule="evenodd" clip-rule="evenodd" d="M31.2923 26.6007C30.9499 29.5879 29.0712 35.582 29.0712 35.582C30.9128 32.4982 31.2531 28.6366 31.2923 26.6007ZM24.0364 36.7002L24.6712 38.3931C26.7488 35.2764 26.8712 32.4653 26.8712 32.4653L24.4797 37.5374L24.0364 36.7002ZM18.8396 42.4874C20.6665 40.1014 21.7515 37.285 22.3204 35.4502L18.8396 42.4874ZM30.7927 15.2073C31.6522 18.6895 32.6154 26.4764 32.6154 26.4764C33.0021 22.266 31.6377 17.6056 30.7927 15.2073ZM31.2656 25.1771C31.2612 25.1645 31.2542 25.1445 31.2452 25.1194C31.252 25.1384 31.2584 25.1569 31.2656 25.1771ZM24.06 4.53744L27.1767 3.68201C26.81 3.68201 24.06 4.53744 24.06 4.53744ZM27.059 6.27232L27.0463 6.55411L31.8821 13.4597C30.8879 10.0296 28.0743 7.20622 27.059 6.27232ZM27.1767 3.68201L27.1358 4.57997C27.2656 4.10202 27.3347 3.68201 27.1767 3.68201ZM19.713 4.53744H24.06C22.5239 4.06811 20.393 3.95627 19.2462 3.93171V3.92639C19.2462 3.92639 19.0966 3.92382 18.842 3.92566C18.5875 3.92382 18.4377 3.92639 18.4377 3.92639L18.4379 3.93171C17.291 3.95627 15.1603 4.06811 13.6241 4.53744C13.6241 4.53744 10.8741 3.68201 10.5075 3.68201C10.1408 3.68201 10.9962 5.94306 10.9962 5.94306C10.9962 5.94306 7.02394 9.24306 5.80184 13.4597L7.51289 13.582C7.51289 13.582 4.51851 20.4876 5.06851 26.4764L6.41289 25.1931C6.41289 25.1931 5.98517 31.182 8.61289 35.582L10.8129 32.4653C10.8129 32.4653 10.9352 35.2764 13.0129 38.3931L14.8462 33.5041C14.8462 33.5041 15.845 38.5764 18.8396 42.4874C19.4329 38.4541 19.713 29.8374 19.713 29.8374L20.9963 30.3874C21.5463 17.5541 19.1628 7.65411 19.1628 7.65411L23.013 8.20411L19.713 4.53744Z" fill="#FFFFFE"/>
<path fill-rule="evenodd" clip-rule="evenodd" d="M15.0943 30.4932L15.6558 33.3446C15.6646 33.3891 16.5036 37.5195 18.8398 41.0633C21.1831 37.5119 22.0197 33.3888 22.0285 33.3439L22.5915 30.498L24.8318 36.4719C25.9434 34.2358 26.0459 32.4485 26.047 32.4268L26.1652 30.0373L28.9658 34.002C30.7638 30.0389 30.4519 25.304 30.4483 25.2519L30.2961 23.1217L31.8544 24.6095C31.7556 19.3742 29.4403 13.9703 29.4143 13.91L28.9512 12.8419L30.7495 12.7135C29.3462 9.2612 26.1947 6.60616 26.1601 6.57719L25.7089 6.20118L25.9163 5.65118C26.029 5.35253 26.1368 5.03774 26.2248 4.75449C25.6581 4.91381 24.9437 5.12648 24.3053 5.32521L24.0622 5.40074L23.8189 5.32649C22.3757 4.88539 20.3235 4.77998 19.2284 4.75633L18.945 4.75028L18.8482 4.75064L18.6828 4.75009L18.4557 4.75633C17.3608 4.77998 15.3084 4.88539 13.8652 5.32649L13.6219 5.40074L13.379 5.32521C12.7405 5.12648 12.026 4.91381 11.459 4.75449C11.5473 5.03774 11.6549 5.35253 11.7679 5.65118L11.9761 6.20154L11.5235 6.57756C11.4892 6.60616 8.33789 9.2612 6.93466 12.7135L8.73224 12.8419L8.27006 13.9098C8.24384 13.9701 5.92999 19.3806 5.82971 24.6093L7.38804 23.1217L7.23587 25.2519C7.23221 25.3034 6.92641 30.0462 8.71849 34.0018L11.5323 30.0156L11.6372 32.4294C11.6381 32.4488 11.7406 34.2358 12.8523 36.4721L15.0943 30.4932ZM18.8396 43.8445L18.1844 42.989C16.4324 40.7007 15.3445 38.0638 14.7247 36.178L13.2199 40.1908L12.3265 38.8506C11.2514 37.238 10.6695 35.7021 10.3551 34.5445L8.55532 37.0941L7.90467 36.0048C6.10672 32.9944 5.66526 29.3441 5.57854 27.1301L4.40319 28.252L4.24699 26.5517C3.80791 21.7722 5.50356 16.5357 6.33057 14.3245L4.72531 14.2099L5.00947 13.23C6.05337 9.62878 8.92052 6.72019 10.0291 5.69793C9.37299 3.81803 9.59941 3.48986 9.76862 3.24511C9.93656 3.00201 10.2128 2.85681 10.5075 2.85681C10.6257 2.85681 10.979 2.85699 13.6326 3.67631C14.8983 3.33018 16.4498 3.19066 17.5986 3.13529L17.5984 3.12136L18.4234 3.10138C18.4234 3.10138 18.5094 3.09991 18.6623 3.09991L18.8482 3.10064L19.0216 3.09991C19.1745 3.09991 19.2607 3.10138 19.2607 3.10138L20.0853 3.11604L20.085 3.13529C21.2341 3.19066 22.786 3.33018 24.0518 3.67631C26.7051 2.85699 27.0584 2.85681 27.1767 2.85681C27.4713 2.85681 27.7478 3.00201 27.9155 3.24511C28.0847 3.48986 28.3111 3.81803 27.655 5.69811C28.7636 6.72038 31.6309 9.62896 32.6745 13.23L32.9585 14.2099L31.3536 14.3245C32.1808 16.5357 33.876 21.7722 33.437 26.5517L33.2809 28.252L32.1056 27.1301C32.0189 29.3441 31.5774 32.9944 29.7795 36.0048L29.1288 37.0943L27.329 34.5445C27.0146 35.7021 26.4327 37.2379 25.3576 38.8506L24.4643 40.1908L22.9582 36.1751C22.3372 38.061 21.2473 40.6996 19.4945 42.989L18.8396 43.8445Z" fill="#1A1919"/>
<path fill-rule="evenodd" clip-rule="evenodd" d="M26.6026 11.6994C26.6026 11.6994 20.3495 6.01204 11.2831 12.9367C11.2831 12.9367 19.4666 9.88459 26.6026 11.6994Z" fill="#1A1919"/>
<path fill-rule="evenodd" clip-rule="evenodd" d="M16.434 13.2458C16.434 14.0728 15.75 14.7431 14.9063 14.7431C14.0624 14.7431 13.3784 14.0728 13.3784 13.2458C13.3784 12.419 14.0624 11.7485 14.9063 11.7485C15.75 11.7485 16.434 12.419 16.434 13.2458Z" fill="#1A1919"/>
<path fill-rule="evenodd" clip-rule="evenodd" d="M24.2637 12.7568C24.2637 13.7862 23.4121 14.6207 22.3616 14.6207C21.3113 14.6207 20.4599 13.7862 20.4599 12.7568C20.4599 11.7274 21.3113 10.8928 22.3616 10.8928C23.4121 10.8928 24.2637 11.7274 24.2637 12.7568Z" fill="#1A1919"/>
<path fill-rule="evenodd" clip-rule="evenodd" d="M15.5478 13.3069C15.5478 13.678 15.2467 13.9792 14.8755 13.9792C14.5044 13.9792 14.2034 13.678 14.2034 13.3069C14.2034 12.9359 14.5044 12.6346 14.8755 12.6346C15.2467 12.6346 15.5478 12.9359 15.5478 13.3069Z" fill="#5FB0C9"/>
<path fill-rule="evenodd" clip-rule="evenodd" d="M22.9116 12.6958C22.9116 13.0839 22.5968 13.3985 22.2087 13.3985C21.821 13.3985 21.5062 13.0839 21.5062 12.6958C21.5062 12.3076 21.821 11.993 22.2087 11.993C22.5968 11.993 22.9116 12.3076 22.9116 12.6958Z" fill="#5FB0C9"/>
<path fill-rule="evenodd" clip-rule="evenodd" d="M22.6273 12.6958C22.6273 12.9268 22.4399 13.1142 22.2088 13.1142C21.9778 13.1142 21.7906 12.9268 21.7906 12.6958C21.7906 12.4648 21.9778 12.2775 22.2088 12.2775C22.4399 12.2775 22.6273 12.4648 22.6273 12.6958Z" fill="#1A1919"/>
<path fill-rule="evenodd" clip-rule="evenodd" d="M15.2957 13.3069C15.2957 13.5388 15.1076 13.7271 14.8755 13.7271C14.6436 13.7271 14.4555 13.5388 14.4555 13.3069C14.4555 13.075 14.6436 12.8867 14.8755 12.8867C15.1076 12.8867 15.2957 13.075 15.2957 13.3069Z" fill="#1A1919"/>
<path fill-rule="evenodd" clip-rule="evenodd" d="M14.3586 13.1312C14.3586 13.2875 14.2317 13.4142 14.0754 13.4142C13.919 13.4142 13.7923 13.2875 13.7923 13.1312C13.7923 12.9746 13.919 12.8479 14.0754 12.8479C14.2317 12.8479 14.3586 12.9746 14.3586 13.1312Z" fill="#FFFFFE"/>
<path fill-rule="evenodd" clip-rule="evenodd" d="M23.3032 12.2489C23.3032 12.4284 23.1578 12.5736 22.9785 12.5736C22.7992 12.5736 22.6538 12.4284 22.6538 12.2489C22.6538 12.0694 22.7992 11.9242 22.9785 11.9242C23.1578 11.9242 23.3032 12.0694 23.3032 12.2489Z" fill="#FFFFFE"/>
<path fill-rule="evenodd" clip-rule="evenodd" d="M11.3006 16.9431C11.3006 16.9431 11.7226 21.2705 13.3172 24.7652C14.7533 27.9125 24.4392 27.1179 24.9283 24.7042C25.4171 22.2902 26.5783 17.4014 26.5783 17.4014C26.5783 17.4014 20.8339 20.4571 11.3006 16.9431Z" fill="#1A1919"/>
<path fill-rule="evenodd" clip-rule="evenodd" d="M13.3402 23.2833C13.3402 23.2833 17.7172 20.4874 19.1152 22.5728C19.1152 22.5728 20.6964 21.5187 24.8441 22.8249L24.2254 25.4374L18.5193 26.7895L14.2568 25.8041L13.3402 23.2833Z" fill="#5FB0C9"/>
<path fill-rule="evenodd" clip-rule="evenodd" d="M22.6436 18.4877C22.5911 18.2598 22.5754 18.127 22.5754 18.127L25.0275 17.6113C24.8786 19.6395 23.6409 20.8083 23.6409 20.8083C23.1038 19.9757 22.8303 19.1982 22.6959 18.6971C21.7919 21.2562 20.9104 21.8624 20.9104 21.8624C19.9785 21.1772 19.3282 19.739 19.103 19.1844C18.9199 19.6515 18.2481 21.2268 17.259 21.954C17.259 21.954 16.3256 21.3124 15.395 18.5624L19.0449 19.0372C19.0258 18.9872 19.016 18.9597 19.016 18.9597L22.6436 18.4877ZM15.1735 18.4479C15.1735 18.4479 15.0246 19.7083 14.108 21.1291C14.108 21.1291 12.8703 19.9604 12.7214 17.9322L15.1735 18.4479ZM16.0902 26.0822C16.0902 26.0822 16.4871 24.5605 18.0086 23.1714L19.1616 26.5091L20.3147 23.1714C21.836 24.5605 22.2331 26.0822 22.2331 26.0822L19.2503 26.7657L19.2655 26.8098L19.1616 26.786L19.0577 26.8098L19.073 26.7657L16.0902 26.0822ZM15.9756 25.8729L15.861 23.352C15.861 23.352 14.2339 24.0395 13.7297 24.9333C13.2256 25.827 15.9756 25.8729 15.9756 25.8729ZM22.5596 23.1458L22.4451 25.6666C22.4451 25.6666 25.1951 25.6208 24.6909 24.727C24.1867 23.8333 22.5596 23.1458 22.5596 23.1458Z" fill="#FFFFFE"/>
<path fill-rule="evenodd" clip-rule="evenodd" d="M12.1863 18.0269C12.4198 19.5182 12.9486 22.191 13.9844 24.4608C14.4385 25.456 16.3571 26.0989 18.8721 26.0989C21.9398 26.0989 24.0822 25.1867 24.2096 24.5586C24.5351 22.9504 25.1632 20.2266 25.5449 18.5916C24.3994 18.955 22.565 19.3666 20.1316 19.3666C17.5816 19.3666 14.9139 18.9163 12.1863 18.0269ZM18.8721 27.5656C14.2843 27.5656 12.9926 25.8201 12.6501 25.0697C11.0232 21.5046 10.5885 17.1959 10.5707 17.0142L10.4573 15.8506L11.5541 16.255C14.5153 17.3464 17.4012 17.8999 20.1316 17.8999C24.0001 17.8999 26.2142 16.7643 26.236 16.7528L27.6614 16.0066L27.2917 17.5708C27.2801 17.6196 26.1279 22.4755 25.647 24.8497C25.2688 26.7158 21.8699 27.5656 18.8721 27.5656Z" fill="#1A1919"/>
<path d="M53.56 13.84H56.9L63.48 24.44H63.52V13.84H66.04V28H62.84L56.12 17.06H56.08V28H53.56V13.84ZM68.4855 23.16C68.4855 22.4 68.6188 21.7133 68.8855 21.1C69.1655 20.4733 69.5388 19.94 70.0055 19.5C70.4721 19.06 71.0255 18.72 71.6655 18.48C72.3055 18.24 72.9855 18.12 73.7055 18.12C74.4255 18.12 75.1055 18.24 75.7455 18.48C76.3855 18.72 76.9388 19.06 77.4055 19.5C77.8721 19.94 78.2388 20.4733 78.5055 21.1C78.7855 21.7133 78.9255 22.4 78.9255 23.16C78.9255 23.92 78.7855 24.6133 78.5055 25.24C78.2388 25.8667 77.8721 26.4067 77.4055 26.86C76.9388 27.3 76.3855 27.6467 75.7455 27.9C75.1055 28.1533 74.4255 28.28 73.7055 28.28C72.9855 28.28 72.3055 28.1533 71.6655 27.9C71.0255 27.6467 70.4721 27.3 70.0055 26.86C69.5388 26.4067 69.1655 25.8667 68.8855 25.24C68.6188 24.6133 68.4855 23.92 68.4855 23.16ZM70.9255 23.16C70.9255 23.5333 70.9788 23.9067 71.0855 24.28C71.2055 24.6533 71.3788 24.9867 71.6055 25.28C71.8321 25.5733 72.1188 25.8133 72.4655 26C72.8121 26.1867 73.2255 26.28 73.7055 26.28C74.1855 26.28 74.5988 26.1867 74.9455 26C75.2921 25.8133 75.5788 25.5733 75.8055 25.28C76.0321 24.9867 76.1988 24.6533 76.3055 24.28C76.4255 23.9067 76.4855 23.5333 76.4855 23.16C76.4855 22.7867 76.4255 22.42 76.3055 22.06C76.1988 21.6867 76.0321 21.3533 75.8055 21.06C75.5788 20.7667 75.2921 20.5333 74.9455 20.36C74.5988 20.1733 74.1855 20.08 73.7055 20.08C73.2255 20.08 72.8121 20.1733 72.4655 20.36C72.1188 20.5333 71.8321 20.7667 71.6055 21.06C71.3788 21.3533 71.2055 21.6867 71.0855 22.06C70.9788 22.42 70.9255 22.7867 70.9255 23.16ZM91.0125 28H88.7325V26.56H88.6925C88.3592 27.12 87.8925 27.5467 87.2925 27.84C86.7058 28.1333 86.0725 28.28 85.3925 28.28C84.6592 28.28 83.9992 28.1467 83.4125 27.88C82.8392 27.6 82.3458 27.2333 81.9325 26.78C81.5325 26.3133 81.2192 25.7733 80.9925 25.16C80.7792 24.5333 80.6725 23.8667 80.6725 23.16C80.6725 22.4533 80.7858 21.7933 81.0125 21.18C81.2392 20.5667 81.5592 20.0333 81.9725 19.58C82.3858 19.1267 82.8792 18.7733 83.4525 18.52C84.0258 18.2533 84.6525 18.12 85.3325 18.12C85.7725 18.12 86.1658 18.1733 86.5125 18.28C86.8592 18.3733 87.1592 18.4933 87.4125 18.64C87.6792 18.7867 87.9058 18.9467 88.0925 19.12C88.2792 19.2933 88.4325 19.46 88.5525 19.62H88.6125V12.88H91.0125V28ZM83.1125 23.16C83.1125 23.5333 83.1658 23.9067 83.2725 24.28C83.3925 24.6533 83.5658 24.9867 83.7925 25.28C84.0192 25.5733 84.3058 25.8133 84.6525 26C84.9992 26.1867 85.4058 26.28 85.8725 26.28C86.3125 26.28 86.7058 26.1933 87.0525 26.02C87.3992 25.8333 87.6925 25.5933 87.9325 25.3C88.1858 25.0067 88.3725 24.68 88.4925 24.32C88.6258 23.9467 88.6925 23.5733 88.6925 23.2C88.6925 22.8267 88.6258 22.4533 88.4925 22.08C88.3725 21.7067 88.1858 21.3733 87.9325 21.08C87.6925 20.7867 87.3992 20.5467 87.0525 20.36C86.7058 20.1733 86.3125 20.08 85.8725 20.08C85.4058 20.08 84.9992 20.1733 84.6525 20.36C84.3058 20.5333 84.0192 20.7667 83.7925 21.06C83.5658 21.3533 83.3925 21.6867 83.2725 22.06C83.1658 22.42 83.1125 22.7867 83.1125 23.16ZM100.688 22.24C100.688 21.9333 100.642 21.64 100.548 21.36C100.468 21.08 100.335 20.8333 100.148 20.62C99.9616 20.4067 99.7216 20.24 99.4283 20.12C99.1483 19.9867 98.8149 19.92 98.4283 19.92C97.7083 19.92 97.0949 20.14 96.5883 20.58C96.0949 21.0067 95.8216 21.56 95.7683 22.24H100.688ZM103.088 23.32C103.088 23.4267 103.088 23.5333 103.088 23.64C103.088 23.7467 103.082 23.8533 103.068 23.96H95.7683C95.7949 24.3067 95.8816 24.6267 96.0283 24.92C96.1883 25.2 96.3949 25.4467 96.6483 25.66C96.9016 25.86 97.1883 26.02 97.5083 26.14C97.8283 26.26 98.1616 26.32 98.5083 26.32C99.1083 26.32 99.6149 26.2133 100.028 26C100.442 25.7733 100.782 25.4667 101.048 25.08L102.648 26.36C101.702 27.64 100.328 28.28 98.5283 28.28C97.7816 28.28 97.0949 28.1667 96.4683 27.94C95.8416 27.7 95.2949 27.3667 94.8283 26.94C94.3749 26.5133 94.0149 25.9933 93.7483 25.38C93.4949 24.7533 93.3683 24.0467 93.3683 23.26C93.3683 22.4867 93.4949 21.7867 93.7483 21.16C94.0149 20.52 94.3749 19.98 94.8283 19.54C95.2816 19.0867 95.8149 18.74 96.4283 18.5C97.0549 18.2467 97.7283 18.12 98.4483 18.12C99.1149 18.12 99.7283 18.2333 100.288 18.46C100.862 18.6733 101.355 19 101.768 19.44C102.182 19.8667 102.502 20.4067 102.728 21.06C102.968 21.7 103.088 22.4533 103.088 23.32ZM105.533 13.84H114.913V16.04H108.053V19.64H114.553V21.76H108.053V25.76H115.273V28H105.533V13.84ZM120.06 22.9L116.6 18.4H119.48L121.56 21.38L123.7 18.4H126.46L123.02 22.9L126.94 28H124.02L121.52 24.5L119 28H116.16L120.06 22.9ZM130.662 18.4V19.74H130.722C130.842 19.5533 130.995 19.3667 131.182 19.18C131.382 18.98 131.622 18.8067 131.902 18.66C132.182 18.5 132.495 18.3733 132.842 18.28C133.202 18.1733 133.602 18.12 134.042 18.12C134.722 18.12 135.349 18.2533 135.922 18.52C136.495 18.7733 136.989 19.1267 137.402 19.58C137.815 20.0333 138.135 20.5667 138.362 21.18C138.589 21.7933 138.702 22.4533 138.702 23.16C138.702 23.8667 138.589 24.5333 138.362 25.16C138.149 25.7733 137.835 26.3133 137.422 26.78C137.022 27.2333 136.529 27.6 135.942 27.88C135.369 28.1467 134.715 28.28 133.982 28.28C133.302 28.28 132.675 28.14 132.102 27.86C131.542 27.58 131.109 27.2 130.802 26.72H130.762V32.8H128.362V18.4H130.662ZM136.262 23.16C136.262 22.7867 136.202 22.42 136.082 22.06C135.975 21.6867 135.809 21.3533 135.582 21.06C135.355 20.7667 135.069 20.5333 134.722 20.36C134.375 20.1733 133.969 20.08 133.502 20.08C133.062 20.08 132.669 20.1733 132.322 20.36C131.975 20.5467 131.675 20.7867 131.422 21.08C131.182 21.3733 130.995 21.7067 130.862 22.08C130.742 22.4533 130.682 22.8267 130.682 23.2C130.682 23.5733 130.742 23.9467 130.862 24.32C130.995 24.68 131.182 25.0067 131.422 25.3C131.675 25.5933 131.975 25.8333 132.322 26.02C132.669 26.1933 133.062 26.28 133.502 26.28C133.969 26.28 134.375 26.1867 134.722 26C135.069 25.8133 135.355 25.5733 135.582 25.28C135.809 24.9867 135.975 24.6533 136.082 24.28C136.202 23.9067 136.262 23.5333 136.262 23.16ZM141.058 12.88H143.458V28H141.058V12.88ZM145.81 23.16C145.81 22.4 145.943 21.7133 146.21 21.1C146.49 20.4733 146.863 19.94 147.33 19.5C147.796 19.06 148.35 18.72 148.99 18.48C149.63 18.24 150.31 18.12 151.03 18.12C151.75 18.12 152.43 18.24 153.07 18.48C153.71 18.72 154.263 19.06 154.73 19.5C155.196 19.94 155.563 20.4733 155.83 21.1C156.11 21.7133 156.25 22.4 156.25 23.16C156.25 23.92 156.11 24.6133 155.83 25.24C155.563 25.8667 155.196 26.4067 154.73 26.86C154.263 27.3 153.71 27.6467 153.07 27.9C152.43 28.1533 151.75 28.28 151.03 28.28C150.31 28.28 149.63 28.1533 148.99 27.9C148.35 27.6467 147.796 27.3 147.33 26.86C146.863 26.4067 146.49 25.8667 146.21 25.24C145.943 24.6133 145.81 23.92 145.81 23.16ZM148.25 23.16C148.25 23.5333 148.303 23.9067 148.41 24.28C148.53 24.6533 148.703 24.9867 148.93 25.28C149.156 25.5733 149.443 25.8133 149.79 26C150.136 26.1867 150.55 26.28 151.03 26.28C151.51 26.28 151.923 26.1867 152.27 26C152.616 25.8133 152.903 25.5733 153.13 25.28C153.356 24.9867 153.523 24.6533 153.63 24.28C153.75 23.9067 153.81 23.5333 153.81 23.16C153.81 22.7867 153.75 22.42 153.63 22.06C153.523 21.6867 153.356 21.3533 153.13 21.06C152.903 20.7667 152.616 20.5333 152.27 20.36C151.923 20.1733 151.51 20.08 151.03 20.08C150.55 20.08 150.136 20.1733 149.79 20.36C149.443 20.5333 149.156 20.7667 148.93 21.06C148.703 21.3533 148.53 21.6867 148.41 22.06C148.303 22.42 148.25 22.7867 148.25 23.16ZM158.577 18.4H160.877V20H160.917C161.183 19.44 161.557 18.9867 162.037 18.64C162.517 18.2933 163.077 18.12 163.717 18.12C163.81 18.12 163.91 18.1267 164.017 18.14C164.123 18.14 164.217 18.1533 164.297 18.18V20.38C164.137 20.34 163.997 20.3133 163.877 20.3C163.77 20.2867 163.663 20.28 163.557 20.28C163.01 20.28 162.57 20.38 162.237 20.58C161.903 20.78 161.643 21.02 161.457 21.3C161.27 21.58 161.143 21.8667 161.077 22.16C161.01 22.4533 160.977 22.6867 160.977 22.86V28H158.577V18.4ZM172.27 22.24C172.27 21.9333 172.224 21.64 172.13 21.36C172.05 21.08 171.917 20.8333 171.73 20.62C171.544 20.4067 171.304 20.24 171.01 20.12C170.73 19.9867 170.397 19.92 170.01 19.92C169.29 19.92 168.677 20.14 168.17 20.58C167.677 21.0067 167.404 21.56 167.35 22.24H172.27ZM174.67 23.32C174.67 23.4267 174.67 23.5333 174.67 23.64C174.67 23.7467 174.664 23.8533 174.65 23.96H167.35C167.377 24.3067 167.464 24.6267 167.61 24.92C167.77 25.2 167.977 25.4467 168.23 25.66C168.484 25.86 168.77 26.02 169.09 26.14C169.41 26.26 169.744 26.32 170.09 26.32C170.69 26.32 171.197 26.2133 171.61 26C172.024 25.7733 172.364 25.4667 172.63 25.08L174.23 26.36C173.284 27.64 171.91 28.28 170.11 28.28C169.364 28.28 168.677 28.1667 168.05 27.94C167.424 27.7 166.877 27.3667 166.41 26.94C165.957 26.5133 165.597 25.9933 165.33 25.38C165.077 24.7533 164.95 24.0467 164.95 23.26C164.95 22.4867 165.077 21.7867 165.33 21.16C165.597 20.52 165.957 19.98 166.41 19.54C166.864 19.0867 167.397 18.74 168.01 18.5C168.637 18.2467 169.31 18.12 170.03 18.12C170.697 18.12 171.31 18.2333 171.87 18.46C172.444 18.6733 172.937 19 173.35 19.44C173.764 19.8667 174.084 20.4067 174.31 21.06C174.55 21.7 174.67 22.4533 174.67 23.32ZM176.995 18.4H179.295V20H179.335C179.601 19.44 179.975 18.9867 180.455 18.64C180.935 18.2933 181.495 18.12 182.135 18.12C182.228 18.12 182.328 18.1267 182.435 18.14C182.541 18.14 182.635 18.1533 182.715 18.18V20.38C182.555 20.34 182.415 20.3133 182.295 20.3C182.188 20.2867 182.081 20.28 181.975 20.28C181.428 20.28 180.988 20.38 180.655 20.58C180.321 20.78 180.061 21.02 179.875 21.3C179.688 21.58 179.561 21.8667 179.495 22.16C179.428 22.4533 179.395 22.6867 179.395 22.86V28H176.995V18.4Z" fill="white"/>
</svg>
